<svg width="48" height="48" viewBox="0 0 48 48" fill="none" xmlns="http://www.w3.org/2000/svg">
<path d="M16.5 25.25V22.75H31.5V25.25H16.5Z" fill="#ED821F" stroke="white" stroke-width="0.5"/>
<path d="M25.75 33.75V31.25H34C36.0098 31.25 37.7264 30.5449 39.135 29.1387C40.5435 27.7325 41.25 26.0186 41.25 24.0117C41.25 22.0049 40.5436 20.2874 39.1355 18.8736L38.9584 19.05L39.1355 18.8736C37.727 17.4594 36.0103 16.75 34 16.75H25.75V14.25H34C36.7006 14.25 38.9953 15.1988 40.8982 17.1018C42.8012 19.0047 43.75 21.2994 43.75 24C43.75 26.7006 42.8012 28.9953 40.8982 30.8982C38.9953 32.8012 36.7006 33.75 34 33.75H25.75Z" fill="#1CB719" stroke="white" stroke-width="0.5"/>
<path d="M8.86451 29.1264L9.04165 28.95L8.86451 29.1264C10.273 30.5406 11.9897 31.25 14 31.25H22.25V33.75H14C11.2994 33.75 9.00472 32.8012 7.10178 30.8982C5.19883 28.9953 4.25 26.7006 4.25 24C4.25 21.2994 5.19883 19.0047 7.10178 17.1018C9.00472 15.1988 11.2994 14.25 14 14.25H22.25V16.75H14C11.9902 16.75 10.2736 17.4551 8.86502 18.8613C7.45646 20.2675 6.75 21.9814 6.75 23.9883C6.75 25.9951 7.45641 27.7126 8.86451 29.1264Z" fill="#C1C520" stroke="white" stroke-width="0.5"/>
</svg>
